<?xml version="1.0" standalone="no"?>
<!DOCTYPE svg PUBLIC "-//W3C//DTD SVG 20010904//EN"
 "http://www.w3.org/TR/2001/REC-SVG-20010904/DTD/svg10.dtd">
<svg version="1.0" xmlns="http://www.w3.org/2000/svg"
 width="488.000000pt" height="488.000000pt" viewBox="0 0 488.000000 488.000000"
 preserveAspectRatio="xMidYMid meet">
<metadata>
Created by potrace 1.14, written by Peter Selinger 2001-2017
</metadata>
<g transform="translate(0.000000,488.000000) scale(0.100000,-0.100000)"
fill="#000000" stroke="none">
<path d="M2326 4854 c-27 -9 -88 -37 -135 -64 -47 -26 -115 -58 -151 -70 -62
-21 -75 -22 -263 -15 -191 7 -199 7 -260 -16 -65 -24 -122 -75 -266 -238 -78
-88 -132 -121 -281 -167 -146 -46 -184 -65 -243 -123 -60 -57 -85 -104 -131
-251 -46 -149 -79 -203 -167 -281 -163 -144 -214 -201 -238 -266 -23 -61 -23
-69 -16 -260 7 -188 6 -201 -15 -263 -12 -36 -43 -104 -70 -151 -107 -191
-107 -307 0 -498 27 -47 58 -115 70 -151 21 -62 22 -75 15 -263 -7 -191 -7
-199 16 -260 24 -65 75 -122 238 -266 88 -78 121 -132 167 -281 46 -146 65
-184 123 -243 57 -60 104 -85 251 -131 149 -46 203 -79 281 -167 144 -163 201
-214 266 -238 61 -23 69 -23 260 -16 188 7 201 6 263 -15 36 -12 104 -43 151
-70 191 -107 307 -107 498 0 47 27 115 58 151 70 62 21 75 22 263 15 191 -7
199 -7 260 16 65 24 122 75 266 238 78 88 132 121 281 167 147 46 194 71 251
131 58 59 77 97 123 243 46 149 79 203 167 281 163 144 214 201 238 266 23 61
23 69 16 260 -7 188 -6 201 15 263 12 36 43 104 70 151 107 191 107 307 0 498
-27 47 -58 115 -70 151 -21 62 -22 75 -15 263 7 191 7 199 -16 260 -24 65 -75
122 -238 266 -88 78 -121 132 -167 281 -46 146 -65 184 -123 243 -57 60 -104
85 -251 131 -149 46 -203 79 -281 167 -144 163 -201 214 -266 238 -61 23 -69
23 -260 16 -188 -7 -201 -6 -263 15 -36 12 -104 43 -151 70 -47 26 -109 55
-139 64 -66 20 -159 20 -224 0z m-361 -1814 c43 -11 101 -31 129 -44 232 -107
363 -367 327 -648 -29 -221 -139 -381 -326 -469 -126 -60 -194 -69 -500 -69
l-265 0 0 625 0 625 278 0 c246 0 288 -2 357 -20z m1282 6 c124 -33 208 -99
259 -201 26 -55 29 -69 29 -165 0 -99 -2 -109 -33 -172 -77 -157 -212 -217
-484 -218 l-138 0 0 -240 0 -240 -130 0 -130 0 0 625 0 625 288 0 c214 0 300
-4 339 -14z m668 -1215 c62 -28 130 -94 162 -160 36 -73 39 -190 6 -263 -30
-66 -95 -133 -162 -165 -47 -23 -69 -28 -136 -28 -67 0 -89 5 -136 28 -67 32
-132 99 -162 165 -29 65 -30 188 0 253 40 89 122 160 213 186 58 17 158 9 215
-16z"/>
<path d="M1580 2434 l0 -417 143 6 c110 4 156 10 204 27 72 25 150 89 188 154
51 87 68 235 40 354 -19 81 -44 128 -94 179 -81 84 -171 113 -353 113 l-128 0
0 -416z"/>
<path d="M2880 2676 l0 -186 99 0 c218 0 291 42 299 173 3 50 -1 71 -20 106
-37 71 -75 85 -240 89 l-138 4 0 -186z"/>
</g>
</svg>
