<svg width="220" height="220" viewBox="0 0 220 220" fill="none" xmlns="http://www.w3.org/2000/svg">
<path d="M219.439 110C219.439 119.541 210.459 127.398 208.214 136.378C205.969 145.357 209.337 157.143 204.847 165C200.357 172.857 188.01 175.663 181.837 182.398C175.102 189.133 172.857 200.918 164.439 205.408C156.582 209.898 144.796 206.531 135.816 208.775C126.837 211.02 118.98 220 109.439 220C99.898 220 92.0408 211.02 83.0612 208.775C74.0816 206.531 62.2959 209.898 54.4388 205.408C46.5816 200.918 43.7755 188.571 37.602 182.398C30.8673 175.663 19.0816 173.418 14.5918 165C10.102 157.143 13.4694 145.357 11.2245 136.378C8.97959 127.398 0 119.541 0 110C0 100.459 8.97959 92.602 11.2245 83.6224C13.4694 74.6429 10.102 62.8571 14.5918 55C19.0816 47.1429 31.4286 44.3367 37.602 37.602C44.3367 30.8673 46.5816 19.0816 55 14.5918C62.8571 10.102 74.6429 13.4694 83.6224 11.2245C92.602 8.97959 100.459 0 110 0C119.541 0 127.398 8.97959 136.378 11.2245C145.357 13.4694 157.143 10.102 165 14.5918C172.857 19.0816 175.663 31.4286 181.837 37.602C188.571 44.3367 200.357 46.5816 204.847 55C209.337 62.8571 205.969 74.6429 208.214 83.6224C210.459 92.0408 219.439 100.459 219.439 110Z" fill="white"/>
</svg>
