<svg width="653" height="653" viewBox="0 0 653 653" fill="none" xmlns="http://www.w3.org/2000/svg">
<path d="M633.301 411.934C645.817 435.116 653 461.562 653 489.75C653 579.864 579.864 653 489.75 653C461.562 653 435.116 645.817 411.934 633.301C411.934 633.301 411.934 633.301 411.825 633.301C409.431 631.778 406.928 630.363 404.316 628.948C404.316 628.948 404.316 628.948 404.207 628.948C381.026 616.432 354.579 609.249 326.391 609.249C298.203 609.249 271.757 616.432 248.575 628.948C248.575 628.948 248.575 628.948 248.467 628.948C245.963 630.363 243.46 631.778 240.957 633.301C240.957 633.301 240.957 633.301 240.848 633.301C217.884 645.817 191.438 653 163.25 653C73.136 653 0 579.864 0 489.75C0 461.562 7.183 435.116 19.6988 411.934C19.6988 411.934 19.6988 411.825 19.8077 411.825C21.3313 409.431 22.6373 407.037 24.0522 404.534C36.6768 381.352 43.751 354.797 43.751 326.5C43.751 298.203 36.568 271.648 23.9433 248.467C22.6373 246.072 21.2225 243.569 19.6988 241.284C19.6988 241.284 19.6988 241.175 19.59 241.175C7.183 217.884 0 191.438 0 163.25C0 73.0272 73.136 0 163.25 0C191.438 0 217.884 7.183 241.066 19.6988C241.066 19.6988 241.175 19.6988 241.175 19.8077C243.569 21.2225 245.963 22.6373 248.358 23.9433C271.648 36.568 298.203 43.751 326.5 43.751C354.797 43.751 381.352 36.568 404.534 23.9433C406.928 22.6373 409.431 21.2225 411.716 19.8077C411.825 19.8077 411.825 19.8077 411.825 19.6988C435.116 7.183 461.562 0 489.75 0C579.864 0 653 73.0272 653 163.25C653 191.438 645.817 217.884 633.301 241.066C633.301 241.066 633.301 241.066 633.301 241.175C631.778 243.569 630.363 246.072 628.948 248.684C628.948 248.684 628.948 248.684 628.948 248.793C616.432 271.975 609.249 298.421 609.249 326.609C609.249 354.797 616.432 381.243 628.948 404.425C628.948 404.425 628.948 404.425 628.948 404.534C630.254 406.928 631.778 409.431 633.301 411.934Z" fill="white"/>
</svg>
